<svg xmlns="http://www.w3.org/2000/svg" width="4600" height="1700" viewBox="0 0 4600 1700">
<defs>
  <marker id="arrow" viewBox="0 0 10 10" refX="5" refY="5" markerWidth="7" markerHeight="7" orient="auto-start-reverse">
    <path d="M 0 0 L 10 5 L 0 10 z" fill="#111"/>
  </marker>
  <pattern id="hatch" patternUnits="userSpaceOnUse" width="16" height="16" patternTransform="rotate(45)">
    <line x1="0" y1="0" x2="0" y2="16" stroke="#555" stroke-width="2" opacity="0.5"/>
  </pattern>
  <style>
    .outer{stroke:#111;stroke-width:7;stroke-linecap:round;stroke-linejoin:round;fill:none}
    .thin{stroke:#111;stroke-width:4;stroke-linecap:round;stroke-linejoin:round;fill:none}
    .mid{stroke:#111;stroke-width:5;stroke-linecap:round;stroke-linejoin:round;fill:none}
    .dim{stroke:#111;stroke-width:2.4;stroke-linecap:round;stroke-linejoin:round;fill:none}
    .center{stroke:#888;stroke-width:2;stroke-dasharray:18 12;fill:none}
    .gridline{stroke:#d9d9d9;stroke-width:1.5;fill:none}
    .label{font-family:Arial, Helvetica, sans-serif;fill:#111}
    .dimtext{font-family:Arial, Helvetica, sans-serif;fill:#111}
    .note{font-family:Arial, Helvetica, sans-serif;fill:#111}
    .title{font-family:Arial, Helvetica, sans-serif;fill:#111;font-weight:700}
  </style>
</defs>
<rect x="0" y="0" width="100%" height="100%" fill="#fff"/>
<rect x="70" y="70" width="4460" height="1560" class="outer" fill="none" />
<line x1="70" y1="200" x2="4530" y2="200" class="thin" />
<line x1="285" y1="70" x2="285" y2="200" class="thin" />
<line x1="3840" y1="70" x2="3840" y2="200" class="thin" />
<line x1="4080" y1="70" x2="4080" y2="200" class="thin" />
<text x="175" y="125" class="label" font-size="30" font-weight="400" text-anchor="middle">I.C.S.I.T.P.S.C.</text>
<text x="175" y="165" class="label" font-size="30" font-weight="400" text-anchor="middle">BUCUREȘTI</text>
<text x="2300.0" y="130" class="title" font-size="48" font-weight="700" text-anchor="middle">CARTEA TEHNICĂ — CIOCAN DE MATRIȚARE CU DUBLU EFECT DE 3150 kg</text>
<text x="3960" y="130" class="title" font-size="42" font-weight="700" text-anchor="start">1024.2-34.18</text>
<text x="3960" y="178" class="title" font-size="42" font-weight="700" text-anchor="start">SABIE</text>
<line x1="520" y1="250" x2="520" y2="1390" class="gridline" />
<line x1="1220" y1="250" x2="1220" y2="1390" class="gridline" />
<line x1="1920" y1="250" x2="1920" y2="1390" class="gridline" />
<line x1="2620" y1="250" x2="2620" y2="1390" class="gridline" />
<line x1="3320" y1="250" x2="3320" y2="1390" class="gridline" />
<line x1="4020" y1="250" x2="4020" y2="1390" class="gridline" />
<line x1="170" y1="560" x2="4350" y2="560" class="gridline" />
<line x1="170" y1="820" x2="4350" y2="820" class="gridline" />
<line x1="170" y1="1080" x2="4350" y2="1080" class="gridline" />
<rect x="160" y="410" width="140" height="320" class="thin" fill="none" />
<rect x="370" y="410" width="140" height="320" class="thin" fill="none" />
<rect x="190" y="550" width="420" height="70" class="mid" fill="none" />
<line x1="80" y1="585" x2="190" y2="585" class="thin" />
<text x="290" y="820" class="label" font-size="30" font-weight="400" text-anchor="start">Ø14</text>
<circle cx="720" cy="530" r="220" class="outer" fill="none" />
<circle cx="720" cy="530" r="165" class="mid" fill="none" />
<path d="M 720 405 L 845 530 L 720 655 L 595 530 Z" class="mid" fill="url(#hatch)" />
<line x1="595" y1="530" x2="845" y2="530" class="thin" />
<line x1="720" y1="405" x2="720" y2="655" class="thin" />
<text x="700" y="480" class="label" font-size="28" font-weight="400" text-anchor="start">25</text>
<text x="772" y="538" class="label" font-size="28" font-weight="400" text-anchor="start">25</text>
<text x="650" y="538" class="label" font-size="28" font-weight="400" text-anchor="start">25</text>
<text x="705" y="602" class="label" font-size="28" font-weight="400" text-anchor="start">25</text>
<text x="405" y="355" class="label" font-size="30" font-weight="400" text-anchor="start" transform="rotate(-45 405 355)">R40</text>
<text x="895" y="455" class="label" font-size="28" font-weight="400" text-anchor="start">R85/R100</text>
<text x="895" y="690" class="label" font-size="30" font-weight="400" text-anchor="start">R40</text>
<path d="M 870 430 C 1180 485 1510 570 1850 645 C 2240 730 2680 770 3140 750 C 3460 738 3740 690 4000 620" class="outer" fill="none" />
<path d="M 610 720 C 740 850 880 1040 1120 1190 C 1440 1390 1900 1480 2350 1440 C 2850 1395 3270 1220 3580 960 C 3770 800 3870 695 4000 620" class="outer" fill="none" />
<path d="M 4000 620 C 4100 610 4165 660 4165 735 C 4165 810 4105 850 4000 842 L 3830 842 L 3738 910" class="outer" fill="none" />
<line x1="3830" y1="842" x2="4000" y2="842" class="mid" />
<line x1="3830" y1="842" x2="3830" y2="710" class="thin" />
<line x1="4000" y1="620" x2="4000" y2="842" class="thin" />
<text x="3945" y="608" class="label" font-size="28" font-weight="400" text-anchor="start">R5</text>
<text x="3982" y="640" class="label" font-size="28" font-weight="400" text-anchor="start">R10</text>
<text x="4138" y="735" class="label" font-size="32" font-weight="400" text-anchor="start">20</text>
<line x1="1080" y1="720" x2="1080" y2="1150" class="dim" />
<line x1="1062" y1="720" x2="1098" y2="720" class="dim" />
<line x1="1062" y1="1150" x2="1098" y2="1150" class="dim" />
<text x="1115" y="935.0" class="label" font-size="30" font-weight="400" text-anchor="start">88</text>
<line x1="1680" y1="690" x2="1680" y2="1320" class="dim" />
<line x1="1662" y1="690" x2="1698" y2="690" class="dim" />
<line x1="1662" y1="1320" x2="1698" y2="1320" class="dim" />
<text x="1715" y="1005.0" class="label" font-size="30" font-weight="400" text-anchor="start">120</text>
<line x1="2340" y1="745" x2="2340" y2="1375" class="dim" />
<line x1="2322" y1="745" x2="2358" y2="745" class="dim" />
<line x1="2322" y1="1375" x2="2358" y2="1375" class="dim" />
<text x="2375" y="1060.0" class="label" font-size="30" font-weight="400" text-anchor="start">125</text>
<line x1="3000" y1="740" x2="3000" y2="1320" class="dim" />
<line x1="2982" y1="740" x2="3018" y2="740" class="dim" />
<line x1="2982" y1="1320" x2="3018" y2="1320" class="dim" />
<text x="3035" y="1030.0" class="label" font-size="30" font-weight="400" text-anchor="start">124</text>
<line x1="3500" y1="750" x2="3500" y2="950" class="dim" marker-start="url(#arrow)" marker-end="url(#arrow)"/>
<text x="3540" y="855" class="label" font-size="30" font-weight="400" text-anchor="start">50</text>
<rect x="1685" y="335" width="1180" height="235" class="outer" fill="none" />
<line x1="1685" y1="335" x2="1740" y2="390" class="thin" />
<line x1="2865" y1="335" x2="2810" y2="390" class="thin" />
<line x1="1740" y1="570" x2="1685" y2="570" class="thin" />
<line x1="2810" y1="570" x2="2865" y2="570" class="thin" />
<circle cx="1935" cy="455" r="47" class="mid" fill="none" />
<line x1="2200" y1="335" x2="2200" y2="570" class="center" />
<line x1="2540" y1="335" x2="2540" y2="570" class="center" />
<line x1="1780" y1="274" x2="1780" y2="322" class="dim" />
<line x1="2865" y1="274" x2="2865" y2="322" class="dim" />
<line x1="1780" y1="298" x2="2865" y2="298" class="dim" marker-start="url(#arrow)" marker-end="url(#arrow)"/>
<text x="2322.5" y="286" class="dimtext" font-size="32" font-weight="400" text-anchor="middle">55</text>
<line x1="1580" y1="226" x2="1580" y2="274" class="dim" />
<line x1="2200" y1="226" x2="2200" y2="274" class="dim" />
<line x1="1580" y1="250" x2="2200" y2="250" class="dim" marker-start="url(#arrow)" marker-end="url(#arrow)"/>
<text x="1890.0" y="238" class="dimtext" font-size="32" font-weight="400" text-anchor="middle">95</text>
<text x="2050" y="640" class="label" font-size="26" font-weight="400" text-anchor="start">R25</text>
<text x="2470" y="640" class="label" font-size="26" font-weight="400" text-anchor="start">R6</text>
<line x1="2145" y1="570" x2="2070" y2="700" class="thin" />
<line x1="2525" y1="570" x2="2450" y2="700" class="thin" />
<line x1="720" y1="245" x2="720" y2="310" class="dim" />
<line x1="430" y1="221" x2="430" y2="269" class="dim" />
<line x1="720" y1="221" x2="720" y2="269" class="dim" />
<line x1="430" y1="245" x2="720" y2="245" class="dim" marker-start="url(#arrow)" marker-end="url(#arrow)"/>
<text x="575.0" y="233" class="dimtext" font-size="32" font-weight="400" text-anchor="middle">75</text>
<line x1="720" y1="181" x2="720" y2="229" class="dim" />
<line x1="1120" y1="181" x2="1120" y2="229" class="dim" />
<line x1="720" y1="205" x2="1120" y2="205" class="dim" marker-start="url(#arrow)" marker-end="url(#arrow)"/>
<text x="920.0" y="193" class="dimtext" font-size="32" font-weight="400" text-anchor="middle">80</text>
<text x="330" y="315" class="label" font-size="28" font-weight="400" text-anchor="start">M12</text>
<text x="1030" y="330" class="label" font-size="28" font-weight="400" text-anchor="start" transform="rotate(38 1030 330)">R40</text>
<text x="3830" y="555" class="label" font-size="26" font-weight="400" text-anchor="start" transform="rotate(-5 3830 555)">25°</text>
<text x="2710" y="320" class="label" font-size="26" font-weight="400" text-anchor="start">12,5°</text>
<text x="2510" y="336" class="label" font-size="26" font-weight="400" text-anchor="start">30°</text>
<line x1="1300" y1="1560" x2="3600" y2="1560" class="dim" marker-start="url(#arrow)" marker-end="url(#arrow)"/>
<line x1="1300" y1="1518" x2="1300" y2="1585" class="dim" />
<line x1="3600" y1="1518" x2="3600" y2="1585" class="dim" />
<text x="2450" y="1545" class="dimtext" font-size="32" font-weight="400" text-anchor="middle">121</text>
<text x="1020" y="1260" class="title" font-size="48" font-weight="700" text-anchor="start">Notă:</text>
<text x="1025" y="1310" class="note" font-size="30" font-weight="400" text-anchor="start">– Profilul se va copia după desen.</text>
<text x="1025" y="1353" class="note" font-size="30" font-weight="400" text-anchor="start">– După frezare se vor lustrui muchiile.</text>
<text x="1025" y="1396" class="note" font-size="30" font-weight="400" text-anchor="start">– Muchiile ascuțite se vor rotunji conform desenului.</text>
<text x="1025" y="1439" class="note" font-size="30" font-weight="400" text-anchor="start">– Se controlează îmbinarea celor două segmente și execuția din tablă groasă.</text>
<text x="1025" y="1482" class="note" font-size="30" font-weight="400" text-anchor="start">– Începutul se cotează, apoi se execută prin sudarea a două discuri rotori.</text>
<rect x="3180" y="1350" width="1350" height="280" class="thin" fill="none" />
<line x1="3180" y1="1445" x2="4530" y2="1445" class="thin" />
<line x1="3600" y1="1350" x2="3600" y2="1630" class="thin" />
<line x1="4030" y1="1350" x2="4030" y2="1630" class="thin" />
<text x="3210" y="1398" class="label" font-size="28" font-weight="400" text-anchor="start">I.C.S.I.T.P.S.C.</text>
<text x="3210" y="1430" class="label" font-size="26" font-weight="400" text-anchor="start">București</text>
<text x="3640" y="1402" class="label" font-size="28" font-weight="400" text-anchor="start">DLC 45</text>
<text x="3640" y="1435" class="label" font-size="24" font-weight="400" text-anchor="start">normalizat</text>
<text x="4070" y="1402" class="label" font-size="30" font-weight="400" text-anchor="start">Conform desen</text>
<text x="4070" y="1438" class="label" font-size="30" font-weight="400" text-anchor="start">1024.2-34.18</text>
<text x="3215" y="1580" class="label" font-size="28" font-weight="400" text-anchor="start">Scara 1:1</text>
<text x="4095" y="1588" class="title" font-size="70" font-weight="700" text-anchor="start">SABIE</text>
<rect x="160" y="410" width="140" height="320" class="thin" fill="url(#hatch)" opacity="0.6"/>
<rect x="370" y="410" width="140" height="320" class="thin" fill="url(#hatch)" opacity="0.6"/>
<line x1="70" y1="585" x2="4340" y2="585" class="center" />
<line x1="720" y1="240" x2="720" y2="1280" class="center" />
</svg>
